<?xml version="1.0" encoding="UTF-8" standalone="no"?><!DOCTYPE svg PUBLIC "-//W3C//DTD SVG 1.1//EN" "http://www.w3.org/Graphics/SVG/1.1/DTD/svg11.dtd"><svg width="100%" height="100%" viewBox="0 0 992 203" version="1.1" xmlns="http://www.w3.org/2000/svg" xmlns:xlink="http://www.w3.org/1999/xlink" xml:space="preserve" style="fill-rule:evenodd;clip-rule:evenodd;stroke-linejoin:round;stroke-miterlimit:1.41421;"><g><path d="M498.401,28.184c13.052,10.907 19.579,27.714 19.579,50.421c0,22.708 -6.661,39.336 -19.981,49.885c-13.321,10.549 -33.748,15.824 -61.283,15.824l-33.257,0l0,54.981l-31.648,0l0,-187.471l64.368,0c28.429,0 49.17,5.453 62.222,16.36Zm-22.394,77.375c6.347,-6.705 9.521,-16.539 9.521,-29.501c0,-12.963 -4.023,-22.127 -12.069,-27.491c-8.046,-5.364 -20.652,-8.046 -37.816,-8.046l-32.184,0l0,75.096l36.743,0c17.522,0 29.457,-3.353 35.805,-10.058Z" style="fill:#fff;fill-rule:nonzero;"/><path d="M650.738,133.854l0,-77.241l30.038,0l0,142.682l-30.038,0l0,-26.015c-4.828,8.761 -11.488,15.644 -19.981,20.651c-8.493,5.006 -17.656,7.509 -27.49,7.509c-16.092,0 -29.1,-4.917 -39.023,-14.751c-9.923,-9.834 -14.885,-24.048 -14.885,-42.643l0,-87.433l30.038,0l0,78.314c0,26.284 10.907,39.425 32.72,39.425c10.371,0 19.4,-3.442 27.088,-10.325c7.689,-6.884 11.533,-16.942 11.533,-30.173Z" style="fill:#fff;fill-rule:nonzero;"/><path d="M811.121,189.237c-9.834,8.136 -22.44,12.203 -37.816,12.203c-10.371,0 -21.143,-1.877 -32.318,-5.632c-11.175,-3.755 -21.054,-9.029 -29.636,-15.824l14.483,-23.333c16.628,12.516 32.72,18.774 48.275,18.774c6.795,0 12.159,-1.564 16.092,-4.693c3.934,-3.129 5.901,-7.108 5.901,-11.935c0,-7.152 -9.477,-13.589 -28.43,-19.311c-1.43,-0.536 -2.503,-0.894 -3.218,-1.072c-29.681,-8.046 -44.521,-21.456 -44.521,-40.23c0,-13.231 5.141,-23.825 15.422,-31.782c10.281,-7.956 23.646,-11.934 40.095,-11.934c16.45,0 32.005,4.827 46.667,14.482l-11.265,22.261c-11.621,-7.689 -24.227,-11.533 -37.816,-11.533c-7.151,0 -12.962,1.297 -17.432,3.889c-4.47,2.593 -6.705,6.482 -6.705,11.667c0,4.649 2.324,8.046 6.973,10.191c3.218,1.609 7.733,3.129 13.544,4.56c5.811,1.43 10.951,2.86 15.421,4.291c4.47,1.43 8.806,3.039 13.008,4.827c4.202,1.788 8.716,4.292 13.544,7.51c9.655,6.437 14.483,16.449 14.483,30.038c0,13.589 -4.917,24.451 -14.751,32.586Z" style="fill:#fff;fill-rule:nonzero;"/><path d="M889.971,122.054l0,77.241l-30.038,0l0,-198.735l30.038,0l0,82.068c4.291,-8.761 10.773,-15.645 19.444,-20.651c8.672,-5.006 18.014,-7.509 28.027,-7.509c16.092,0 29.1,4.917 39.023,14.75c9.923,9.834 14.885,24.049 14.885,42.644l0,87.433l-30.038,0l0,-78.314c0,-26.284 -10.907,-39.425 -32.72,-39.425c-10.371,0 -19.4,3.441 -27.088,10.325c-7.689,6.884 -11.533,16.941 -11.533,30.173Z" style="fill:#fff;fill-rule:nonzero;"/><g><g><path d="M55.049,50.828c64.57,0 129.141,-0.362 193.71,-0.122l0,0.122l24.563,0c8.348,0 15.125,6.778 15.125,15.125l0,121.005c0,8.348 -6.777,15.125 -15.125,15.125l-218.273,0c-8.348,0 -15.126,-6.777 -15.126,-15.125l0,-24.767l-0.026,0c-0.057,-32.076 -0.176,-64.153 0.026,-96.228l0,-0.01c0,-0.721 0.051,-1.43 0.149,-2.125l0.001,-0.009l0.007,-0.05l0.018,-0.118l0.003,-0.024l0.003,-0.017l0.008,-0.049l0.015,-0.097l0.007,-0.039l0.004,-0.023l0.007,-0.042l0.015,-0.083l0.01,-0.055l0.005,-0.028l0.006,-0.032l0.013,-0.07l0.015,-0.075l0.005,-0.03l0.005,-0.023l0.012,-0.057l0.021,-0.099l0.005,-0.028l0.003,-0.013l0.01,-0.045l0.03,-0.134l0.003,-0.014l0.001,-0.003c0.046,-0.204 0.097,-0.406 0.152,-0.606l0.001,-0.004l0.004,-0.016l0.036,-0.13l0.013,-0.043l0.004,-0.015l0.009,-0.029l0.026,-0.092l0.017,-0.056l0.008,-0.025l0.009,-0.031l0.021,-0.066l0.021,-0.069l0.011,-0.035l0.009,-0.027l0.015,-0.047l0.028,-0.083l0.014,-0.044l0.007,-0.019l0.009,-0.03l0.037,-0.105l0.015,-0.045l0.004,-0.011l0.005,-0.014l0.063,-0.174c0,0 0.064,-0.173 0.064,-0.173l0.006,-0.015l0.004,-0.01l0.015,-0.04l0.042,-0.108l0.013,-0.032l0.007,-0.017l0.013,-0.033l0.036,-0.089l0.023,-0.055l0.007,-0.018l0.009,-0.021l0.032,-0.076l0.037,-0.088l0.005,-0.01l0.002,-0.006c0.675,-1.56 1.604,-2.985 2.736,-4.221l0.004,-0.004l0.007,-0.007l0.073,-0.08l0.049,-0.052l0.015,-0.015l0.015,-0.017l0.046,-0.048l0.06,-0.063l0.024,-0.025l0.015,-0.015l0.027,-0.028l0.076,-0.077l0.03,-0.031l0.009,-0.009l0.012,-0.012l0.129,-0.128c0,0 0.131,-0.126 0.131,-0.126l0.01,-0.009l0.008,-0.007l0.031,-0.03l0.083,-0.078l0.023,-0.021l0.013,-0.012l0.027,-0.025l0.071,-0.065l0.039,-0.035l0.015,-0.013l0.018,-0.017l0.063,-0.056l0.062,-0.055l0.01,-0.009l0.009,-0.007c1.225,-1.072 2.624,-1.949 4.149,-2.584l0.011,-0.005l0.01,-0.004l0.067,-0.028l0.089,-0.036l0.024,-0.009l0.014,-0.006l0.044,-0.017l0.099,-0.039l0.034,-0.013l0.014,-0.005l0.025,-0.01l0.113,-0.042l0.041,-0.016l0.008,-0.003l0.011,-0.004l0.174,-0.062c0,0 0.176,-0.061 0.176,-0.061l0.014,-0.005l0.01,-0.003l0.046,-0.015l0.106,-0.035l0.029,-0.01l0.02,-0.006l0.043,-0.014l0.085,-0.027l0.047,-0.014l0.027,-0.008l0.035,-0.011l0.069,-0.021l0.067,-0.02l0.031,-0.009l0.025,-0.007l0.056,-0.016l0.093,-0.026l0.03,-0.008l0.014,-0.004l0.043,-0.012l0.132,-0.035l0.015,-0.004l0.004,-0.001c0.201,-0.052 0.404,-0.101 0.609,-0.145l0.004,0l0.013,-0.003l0.135,-0.029l0.045,-0.009l0.014,-0.002l0.026,-0.006l0.1,-0.019l0.058,-0.011l0.023,-0.005l0.03,-0.005l0.075,-0.014l0.071,-0.012l0.032,-0.006l0.028,-0.004l0.055,-0.01l0.084,-0.013l0.042,-0.007l0.023,-0.004l0.038,-0.006l0.098,-0.014l0.05,-0.008l0.016,-0.002l0.025,-0.003l0.118,-0.016l0.05,-0.007l0.009,-0.001l0.011,-0.002l0.19,-0.023c0.569,-0.065 1.148,-0.098 1.736,-0.098Zm-36.095,111.363l-3.594,0c-8.348,0 -15.126,-6.778 -15.126,-15.126l0,-121.004c0,-8.348 6.778,-15.125 15.126,-15.126l218.273,0c8.349,0.001 15.126,6.778 15.126,15.126l0,3.676c-64.592,-0.239 -129.185,0.122 -193.777,0.122c-0.439,0.002 -0.877,0.009 -1.315,0.025c-0.764,0.029 -1.526,0.083 -2.286,0.16c-2.689,0.273 -5.347,0.85 -7.908,1.717c-4.552,1.542 -8.781,4.002 -12.376,7.192c-2.369,2.103 -4.461,4.518 -6.204,7.164c-1.608,2.443 -2.919,5.082 -3.891,7.841c-0.898,2.546 -1.507,5.193 -1.814,7.875c-0.104,0.91 -0.174,1.823 -0.208,2.738c-0.017,0.439 -0.023,0.877 -0.026,1.316l0,96.304Z" style="fill:#fff;"/></g></g></g></svg>